<mxfile host="app.diagrams.net" agent="Mozilla/5.0 (Windows NT 10.0; Win64; x64; rv:128.0) Gecko/20100101 Firefox/128.0" version="24.7.7">
  <diagram id="3228e29e-7158-1315-38df-8450db1d8a1d" name="Page-1">
    <mxGraphModel dx="1105" dy="546" grid="1" gridSize="10" guides="1" tooltips="1" connect="1" arrows="1" fold="1" page="1" pageScale="1" pageWidth="1169" pageHeight="827" background="none" math="0" shadow="0">
      <root>
        <mxCell id="0" />
        <mxCell id="1" parent="0" />
        <mxCell id="EU3ODfeAd3cBC0UywG_T-21719" value="" style="ellipse;whiteSpace=wrap;html=1;fillColor=#e3c800;fontColor=#000000;strokeColor=#B09500;opacity=50;" vertex="1" parent="1">
          <mxGeometry x="840" y="120" width="160" height="280" as="geometry" />
        </mxCell>
        <mxCell id="EU3ODfeAd3cBC0UywG_T-21710" value="" style="ellipse;whiteSpace=wrap;html=1;fillColor=#60a917;fontColor=#ffffff;strokeColor=#2D7600;opacity=50;" vertex="1" parent="1">
          <mxGeometry x="700" y="60" width="120" height="80" as="geometry" />
        </mxCell>
        <mxCell id="EU3ODfeAd3cBC0UywG_T-21694" value="&lt;b&gt;&lt;font style=&quot;font-size: 17px;&quot;&gt;Super Mario Bros.&lt;/font&gt;&lt;/b&gt;" style="ellipse;whiteSpace=wrap;html=1;fillColor=#6a00ff;strokeColor=#3700CC;fillOpacity=100;opacity=50;fontColor=#ffffff;" vertex="1" parent="1">
          <mxGeometry x="440" y="120" width="320" height="360" as="geometry" />
        </mxCell>
        <mxCell id="EU3ODfeAd3cBC0UywG_T-21705" style="edgeStyle=orthogonalEdgeStyle;rounded=0;orthogonalLoop=1;jettySize=auto;html=1;entryX=0;entryY=0.5;entryDx=0;entryDy=0;" edge="1" parent="1" source="EU3ODfeAd3cBC0UywG_T-21695" target="EU3ODfeAd3cBC0UywG_T-21698">
          <mxGeometry relative="1" as="geometry" />
        </mxCell>
        <mxCell id="EU3ODfeAd3cBC0UywG_T-21695" value="&lt;font style=&quot;font-size: 9px;&quot;&gt;Super Mario Bros.: The Lost Levels&lt;/font&gt;" style="rounded=0;whiteSpace=wrap;html=1;" vertex="1" parent="1">
          <mxGeometry x="480" y="320" width="80" height="40" as="geometry" />
        </mxCell>
        <mxCell id="EU3ODfeAd3cBC0UywG_T-21702" style="edgeStyle=orthogonalEdgeStyle;rounded=0;orthogonalLoop=1;jettySize=auto;html=1;entryX=0.5;entryY=1;entryDx=0;entryDy=0;" edge="1" parent="1" source="EU3ODfeAd3cBC0UywG_T-21696" target="EU3ODfeAd3cBC0UywG_T-21697">
          <mxGeometry relative="1" as="geometry" />
        </mxCell>
        <mxCell id="EU3ODfeAd3cBC0UywG_T-21703" style="edgeStyle=orthogonalEdgeStyle;rounded=0;orthogonalLoop=1;jettySize=auto;html=1;entryX=0.5;entryY=1;entryDx=0;entryDy=0;" edge="1" parent="1" source="EU3ODfeAd3cBC0UywG_T-21696" target="EU3ODfeAd3cBC0UywG_T-21695">
          <mxGeometry relative="1" as="geometry" />
        </mxCell>
        <mxCell id="EU3ODfeAd3cBC0UywG_T-21715" style="edgeStyle=orthogonalEdgeStyle;rounded=0;orthogonalLoop=1;jettySize=auto;html=1;entryX=0.5;entryY=1;entryDx=0;entryDy=0;" edge="1" parent="1" source="EU3ODfeAd3cBC0UywG_T-21696" target="EU3ODfeAd3cBC0UywG_T-21711">
          <mxGeometry relative="1" as="geometry" />
        </mxCell>
        <mxCell id="EU3ODfeAd3cBC0UywG_T-21696" value="&lt;font style=&quot;font-size: 9px;&quot;&gt;Super Mario Bros.&lt;/font&gt;" style="rounded=0;whiteSpace=wrap;html=1;" vertex="1" parent="1">
          <mxGeometry x="560" y="400" width="80" height="40" as="geometry" />
        </mxCell>
        <mxCell id="EU3ODfeAd3cBC0UywG_T-21704" style="edgeStyle=orthogonalEdgeStyle;rounded=0;orthogonalLoop=1;jettySize=auto;html=1;entryX=1;entryY=0.5;entryDx=0;entryDy=0;" edge="1" parent="1" source="EU3ODfeAd3cBC0UywG_T-21697" target="EU3ODfeAd3cBC0UywG_T-21698">
          <mxGeometry relative="1" as="geometry">
            <Array as="points">
              <mxPoint x="680" y="260" />
            </Array>
          </mxGeometry>
        </mxCell>
        <mxCell id="EU3ODfeAd3cBC0UywG_T-21697" value="&lt;font style=&quot;font-size: 9px;&quot;&gt;Super Mario Bros. USA&lt;/font&gt;" style="rounded=0;whiteSpace=wrap;html=1;" vertex="1" parent="1">
          <mxGeometry x="640" y="320" width="80" height="40" as="geometry" />
        </mxCell>
        <mxCell id="EU3ODfeAd3cBC0UywG_T-21706" style="edgeStyle=orthogonalEdgeStyle;rounded=0;orthogonalLoop=1;jettySize=auto;html=1;entryX=0.5;entryY=1;entryDx=0;entryDy=0;" edge="1" parent="1" source="EU3ODfeAd3cBC0UywG_T-21698" target="EU3ODfeAd3cBC0UywG_T-21699">
          <mxGeometry relative="1" as="geometry" />
        </mxCell>
        <mxCell id="EU3ODfeAd3cBC0UywG_T-21698" value="&lt;font style=&quot;font-size: 9px;&quot;&gt;Super Mario Bros. 3&lt;/font&gt;" style="rounded=0;whiteSpace=wrap;html=1;" vertex="1" parent="1">
          <mxGeometry x="560" y="240" width="80" height="40" as="geometry" />
        </mxCell>
        <mxCell id="EU3ODfeAd3cBC0UywG_T-21709" style="edgeStyle=orthogonalEdgeStyle;rounded=0;orthogonalLoop=1;jettySize=auto;html=1;entryX=0.5;entryY=1;entryDx=0;entryDy=0;" edge="1" parent="1" source="EU3ODfeAd3cBC0UywG_T-21699" target="EU3ODfeAd3cBC0UywG_T-21708">
          <mxGeometry relative="1" as="geometry" />
        </mxCell>
        <mxCell id="EU3ODfeAd3cBC0UywG_T-21699" value="&lt;font style=&quot;font-size: 9px;&quot;&gt;Super Mario World&lt;br&gt;&lt;/font&gt;" style="rounded=0;whiteSpace=wrap;html=1;" vertex="1" parent="1">
          <mxGeometry x="560" y="160" width="80" height="40" as="geometry" />
        </mxCell>
        <mxCell id="EU3ODfeAd3cBC0UywG_T-21708" value="&lt;font style=&quot;font-size: 9px;&quot;&gt;Super Mario World 2: Yoshi&#39;s Island&lt;br&gt;&lt;/font&gt;" style="rounded=0;whiteSpace=wrap;html=1;" vertex="1" parent="1">
          <mxGeometry x="720" y="80" width="80" height="40" as="geometry" />
        </mxCell>
        <mxCell id="EU3ODfeAd3cBC0UywG_T-21716" style="edgeStyle=orthogonalEdgeStyle;rounded=0;orthogonalLoop=1;jettySize=auto;html=1;entryX=0.5;entryY=1;entryDx=0;entryDy=0;" edge="1" parent="1" source="EU3ODfeAd3cBC0UywG_T-21711" target="EU3ODfeAd3cBC0UywG_T-21712">
          <mxGeometry relative="1" as="geometry" />
        </mxCell>
        <mxCell id="EU3ODfeAd3cBC0UywG_T-21711" value="&lt;font style=&quot;font-size: 9px;&quot;&gt;Super Mario Land&lt;br&gt;&lt;/font&gt;" style="rounded=0;whiteSpace=wrap;html=1;" vertex="1" parent="1">
          <mxGeometry x="880" y="320" width="80" height="40" as="geometry" />
        </mxCell>
        <mxCell id="EU3ODfeAd3cBC0UywG_T-21717" style="edgeStyle=orthogonalEdgeStyle;rounded=0;orthogonalLoop=1;jettySize=auto;html=1;entryX=0.5;entryY=1;entryDx=0;entryDy=0;" edge="1" parent="1" source="EU3ODfeAd3cBC0UywG_T-21712" target="EU3ODfeAd3cBC0UywG_T-21713">
          <mxGeometry relative="1" as="geometry" />
        </mxCell>
        <mxCell id="EU3ODfeAd3cBC0UywG_T-21712" value="&lt;font style=&quot;font-size: 9px;&quot;&gt;Super Mario Land 2: 6 Golden Coins&lt;br&gt;&lt;/font&gt;" style="rounded=0;whiteSpace=wrap;html=1;" vertex="1" parent="1">
          <mxGeometry x="880" y="240" width="80" height="40" as="geometry" />
        </mxCell>
        <mxCell id="EU3ODfeAd3cBC0UywG_T-21713" value="&lt;font style=&quot;font-size: 9px;&quot;&gt;Super Mario Land 3: Wario Land&lt;br&gt;&lt;/font&gt;" style="rounded=0;whiteSpace=wrap;html=1;" vertex="1" parent="1">
          <mxGeometry x="880" y="160" width="80" height="40" as="geometry" />
        </mxCell>
      </root>
    </mxGraphModel>
  </diagram>
</mxfile>
